<?xml version="1.0" encoding="utf-8"?>
<svg xmlns="http://www.w3.org/2000/svg" viewBox="0 0 900 1200">
  <defs>
    <radialGradient id="ink-spread-gradient" cx="0.5" cy="0.5" r="0.55">
      <stop offset="80%" stop-color="white"/>
      <stop offset="100%" stop-color="black"/>
    </radialGradient>
    <style>
      .ink-blot-bg{
        fill:#ed3ebf;
      }
      .cls-2{
        fill:#ff0;
      }
    </style>
  </defs>
  <mask id="ink-blot-mask">
    <path class="ink-blot-expand" d="M1577.4.2c.6,198.5-40.4,234.6-108.7,403.2-99.7,247.4-198.2,568.4-351.6,735.1-129.9,141.1-444.5,159.1-633,159.1-377.5,0-658.6-181.8-805.7-545.6-377.7-722-378-777.5,0-1499.6,147.1-363.7,428.2-545.6,805.7-545.6,188.5,0,503.1,18,633,159.1C1270.5-967.3,1369-646.3,1468.7-399,1536.6-230.7,1577.1-197.3,1577.4.2Z" fill="url(#ink-spread-gradient)" transform="translate(475, 5) scale(0.2) translate(-475, -5)"/>
  </mask>
  <path class="ink-blot-bg" d="M799.1,1189c-82.1,0-65.2-12.5-153.1-13-25.9-.1-37.2,20-118,22-94.5,2.4-259-11.4-275-15-81-18-118,4-177,4s-69-17.7-67-73,14-66,15-152S14,939,12,753-2,548,4,487s12-58,13-131S0,285.3,0,219.2,58,41,142.2,40C384,37,420,5,474,3,538,.6,590,29,738,36A882.4,882.4,0,0,1,851.2,49C867.1,49,899,60,899,77.8,899,156,872.4,188,877,254c4,57,10.9,104.5,13,225,1.3,72.8-6.3,110.5-10.7,236.2S893,1046.3,892,1101.1,881.3,1189,799.1,1189Z" mask="url(#ink-blot-mask)"/>
</svg>